PathFileType	4	(X/Y/Z)	s09c0202.trc
DataRate	CameraRate	NumFrames	NumMarkers	Units	OrigDataRate	OrigDataStartFrame	OrigNumFrames
200	200	4	50	mm	200	0	2000
Frame#	Time	racr			lacr			c7			jug			rlel			rdr			llel			ldr			s2			lic			ric			lasi			rasi			rpsi			lpsi			rgt			lgt			rth1			rth2			rth3			rth4			rlfc			rmfc			rsh1			rsh2			rsh3			rsh4			rlmal			rmmal			rcal			rtoe			rmt5			lth1			lth2			lth4			lth3			llfc			lmfc			llmal			lmmal			lcal			lmt5			lsh1			lsh2			lsh3			lsh4			ltoe			SBIKE			LBIKE			RBIKE			
		X1	Y1	Z1	X2	Y2	Z2	X3	Y3	Z3	X4	Y4	Z4	X5	Y5	Z5	X6	Y6	Z6	X7	Y7	Z7	X8	Y8	Z8	X9	Y9	Z9	X10	Y10	Z10	X11	Y11	Z11	X12	Y12	Z12	X13	Y13	Z13	X14	Y14	Z14	X15	Y15	Z15	X16	Y16	Z16	X17	Y17	Z17	X18	Y18	Z18	X19	Y19	Z19	X20	Y20	Z20	X21	Y21	Z21	X22	Y22	Z22	X23	Y23	Z23	X24	Y24	Z24	X25	Y25	Z25	X26	Y26	Z26	X27	Y27	Z27	X28	Y28	Z28	X29	Y29	Z29	X30	Y30	Z30	X31	Y31	Z31	X32	Y32	Z32	X33	Y33	Z33	X34	Y34	Z34	X35	Y35	Z35	X36	Y36	Z36	X37	Y37	Z37	X38	Y38	Z38	X39	Y39	Z39	X40	Y40	Z40	X41	Y41	Z41	X42	Y42	Z42	X43	Y43	Z43	X44	Y44	Z44	X45	Y45	Z45	X46	Y46	Z46	X47	Y47	Z47	X48	Y48	Z48	X49	Y49	Z49	X50	Y50	Z50	
0	0.0000	506.457588	1282.945531	-110.604718	495.838395	1275.320015	-427.882261	493.239439	1297.162492	-267.862220	473.988415	1168.691274	-267.821273	500.699366	1069.420874	35.496626	681.232887	908.629015	-36.817939	477.471931	1032.302433	-564.376998	677.731705	909.019382	-466.876743	15.082885	1124.013053	-240.511376	143.475557	1120.476961	-392.652143	165.872497	1117.583232	-96.243033	190.185493	1067.123399	-373.612722	205.905250	1061.263367	-120.436407	48.245526	1151.359220	-182.614336	43.173184	1157.701214	-291.818109	130.953250	975.925185	-50.043267	105.716998	1010.671268	-439.606682	210.570012	859.186176	-49.727894	276.387596	800.779778	-55.926417	296.964696	714.055094	-62.511543	300.806249	816.131875	-78.385964	325.956035	613.749318	-91.487258	309.413996	600.484703	-188.751623	247.067724	543.613841	-63.490376	211.559247	462.147486	-79.148891	141.003084	410.286148	-80.902634	232.781793	450.537369	-110.730677	74.836450	332.905947	-84.380486	83.383440	344.165326	-162.948534	-11.767177	324.139553	-127.213476	235.361238	227.035189	-123.177176	151.070906	239.783136	-60.273115	230.300210	954.395026	-436.289737	315.042679	952.158494	-430.424095	325.815707	984.529325	-414.193128	392.984640	905.517137	-432.669429	480.642026	847.199988	-416.356430	501.806308	837.584295	-316.506184	362.063871	506.759937	-409.131956	379.846976	512.976263	-338.959215	286.910238	485.492468	-370.366842	441.896934	407.200312	-433.605474	452.602494	751.180504	-434.663785	446.049018	665.077825	-423.288321	395.575554	591.984243	-418.804410	471.144466	659.879423	-392.993126	536.428760	404.524642	-367.060836	-65.114373	851.881989	-240.807645	21.165144	83.638964	-442.341869	21.229836	83.824746	-43.890687	
1	0.0050	506.464212	1282.928549	-110.611016	495.833273	1275.321449	-427.895755	493.259841	1297.170530	-267.817767	474.005045	1168.721928	-267.815145	500.705843	1069.415569	35.472661	681.261023	908.629514	-36.813330	477.466091	1032.296773	-564.344271	677.729264	909.034449	-466.880197	15.083780	1124.009590	-240.530838	143.486304	1120.465448	-392.668318	165.892467	1117.596571	-96.281075	190.211532	1067.100522	-373.634205	205.918511	1061.274951	-120.441938	48.257757	1151.372678	-182.653350	43.172735	1157.735086	-291.845563	130.963899	975.952175	-50.038066	105.717957	1010.660370	-439.621274	210.583621	859.219327	-49.723920	276.404968	800.810182	-55.949184	297.008484	714.097360	-62.498864	300.826155	816.188331	-78.412663	325.992898	613.791203	-91.480805	309.471849	600.507101	-188.726327	247.083787	543.648362	-63.474949	211.611262	462.190471	-79.142062	141.014878	410.342980	-80.898842	232.831330	450.578080	-110.704603	74.842477	332.943027	-84.379755	83.402239	344.227693	-162.926868	-11.741573	324.228326	-127.214530	235.357335	227.047919	-123.188407	151.056544	239.815221	-60.262067	230.297384	954.366559	-436.326506	315.038903	952.124556	-430.451300	325.801251	984.494467	-414.221952	392.972018	905.475366	-432.705224	480.627868	847.134302	-416.361408	501.828562	837.586195	-316.528703	362.036706	506.703084	-409.118618	379.840897	512.931325	-338.939733	286.906003	485.425099	-370.387011	441.915643	407.166093	-433.609294	452.572410	751.133767	-434.683094	446.029154	665.035505	-423.298299	395.543483	591.921969	-418.812118	471.136448	659.836581	-393.017015	536.449692	404.507210	-367.050321	-65.118860	851.891889	-240.802725	21.156568	83.645878	-442.334869	21.250375	83.783204	-43.880989	
2	0.0100	506.482093	1282.907326	-110.603469	495.845745	1275.328717	-427.867478	493.282625	1297.180263	-267.779483	474.003276	1168.751827	-267.818786	500.681608	1069.396190	35.485684	681.240396	908.632850	-36.822443	477.458856	1032.301305	-564.337326	677.725471	909.019625	-466.851019	15.083683	1124.033148	-240.531534	143.513478	1120.457528	-392.662248	165.888630	1117.609085	-96.306160	190.234480	1067.086119	-373.633584	205.919409	1061.279739	-120.482316	48.252424	1151.377388	-182.675305	43.200161	1157.747834	-291.875125	130.964391	975.961058	-50.049741	105.733772	1010.635412	-439.618922	210.623040	859.244862	-49.740492	276.452112	800.877609	-55.930283	297.042908	714.129407	-62.497371	300.838240	816.226841	-78.414008	326.035983	613.818894	-91.462866	309.517227	600.530124	-188.720888	247.144301	543.679752	-63.467354	211.638770	462.222998	-79.131258	141.044541	410.392934	-80.900528	232.850747	450.598637	-110.683435	74.860306	332.988621	-84.379650	83.433037	344.276969	-162.944323	-11.717300	324.276852	-127.200017	235.326348	227.045455	-123.198024	151.051740	239.834798	-60.268607	230.296989	954.350489	-436.333763	315.036471	952.100932	-430.478864	325.807945	984.459051	-414.254917	392.956709	905.430425	-432.739548	480.612956	847.102301	-416.395548	501.798843	837.533368	-316.542597	362.028317	506.653260	-409.126652	379.807820	512.892232	-338.952897	286.901183	485.361699	-370.393792	441.924705	407.146850	-433.603570	452.560455	751.089702	-434.708172	446.016037	664.991767	-423.313765	395.524784	591.863562	-418.836707	471.107827	659.788085	-393.031590	536.463307	404.511393	-367.062747	-65.120845	851.887136	-240.799343	21.158969	83.657189	-442.339625	21.246879	83.795356	-43.888107	
3	0.0150	506.456266	1282.879799	-110.577343	495.853495	1275.328728	-427.862745	493.261399	1297.155994	-267.822128	473.989781	1168.766397	-267.799842	500.737557	1069.828730	35.922623	681.485907	908.504105	-36.910022	477.444847	1031.980783	-564.427097	677.588538	909.399719	-466.943475	15.150132	1124.328514	-240.654854	143.540569	1120.432332	-392.683268	165.883710	1117.710673	-97.130766	190.256862	1067.066747	-373.670092	205.915716	1061.266194	-120.480660	48.599406	1151.273128	-182.471487	43.734556	1157.889829	-291.863443	130.962701	975.964451	-50.060736	105.747523	1010.625744	-439.629149	210.646366	859.305600	-49.632651	275.447924	800.349562	-56.935729	297.064601	714.150189	-62.484489	300.866080	816.236552	-78.437566	326.393977	613.609444	-91.348963	309.571178	600.569580	-188.709274	247.152678	543.700558	-63.470200	211.814379	462.194658	-78.930778	141.226531	410.304577	-80.943376	232.895345	450.638427	-110.672359	74.821661	332.877557	-84.136016	83.435359	344.313013	-162.930200	-11.721391	324.338457	-127.204420	235.324362	227.037292	-123.191261	151.041542	239.858652	-60.253602	229.661207	952.859634	-434.980626	315.028853	952.080707	-430.514555	325.599234	984.661029	-414.249323	393.128614	905.175911	-432.738318	480.469644	846.893936	-416.391445	501.385966	838.243569	-316.622516	361.750971	507.041671	-409.212093	380.954930	512.192424	-339.570275	287.077303	485.174434	-370.214982	441.926230	407.123659	-433.602508	452.546970	751.039626	-434.720114	446.004468	664.915885	-423.398888	395.514622	591.798737	-418.839122	471.146552	659.710242	-392.650169	536.470510	404.493345	-367.067860	-65.124818	851.883520	-240.805638	21.148321	83.638083	-442.346725	21.253470	83.779399	-43.883272	
